PathFileType	4	(X/Y/Z)	15_coords_data.trc
DataRate	CameraRate	NumFrames	NumMarkers	Units	OrigDataRate	OrigDataStartFrame	OrigNumFrames
30.0	30.0	6	21	m	30.0	10	75
Frame#	Time	THUMB_TIP	THUMB_IP	THUMB_MCP	THUMB_CMC	INDEX_TIP	INDEX_DIP	INDEX_PIP	INDEX_MCP	MIDDLE_TIP	MIDDLE_DIP	MIDDLE_PIP	MIDDLE_MCP	RING_TIP	RING_DIP	RING_PIP	RING_MCP	PINKY_TIP	PINKY_DIP	PINKY_PIP	PINKY_MCP	WRIST
X1	Y1	Z1	X2	Y2	Z2	X3	Y3	Z3	X4	Y4	Z4	X5	Y5	Z5	X6	Y6	Z6	X7	Y7	Z7	X8	Y8	Z8	X9	Y9	Z9	X10	Y10	Z10	X11	Y11	Z11	X12	Y12	Z12	X13	Y13	Z13	X14	Y14	Z14	X15	Y15	Z15	X16	Y16	Z16	X17	Y17	Z17	X18	Y18	Z18	X19	Y19	Z19	X20	Y20	Z20	X21	Y21	Z21
9	0.3	-0.01016189956665039	-0.04226549911499024	0.9784429931640625	-0.017071699142456053	-0.02592410087585449	0.9664979858398437	-0.02805550003051758	-0.00620173978805542	0.9557009887695312	-0.028184999465942384	0.026040599822998046	0.949969970703125	0.001553259968757629	-0.09586669921875	0.92464599609375	3.5748198628425005e-05	-0.07806050109863281	0.915208984375	-0.003679579973220825	-0.05651129913330078	0.9092899780273438	-0.012266300201416015	-0.01913409996032715	0.9170150146484375	-0.012445199966430663	-0.022314199447631834	0.9563909912109375	-0.003011670112609863	-0.03911470031738281	0.957197998046875	0.014340299606323242	-0.04846580123901367	0.943843017578125	0.01177989959716797	-0.01465590000152588	0.9177440185546875	-0.0055736198425292965	-0.013146200180053712	0.9670709838867187	0.0059482002258300784	-0.026886299133300783	0.9660919799804687	0.025150100708007814	-0.033821498870849606	0.9557360229492188	0.027300899505615234	-0.0047214899063110355	0.9321309814453125	0.07520549774169921	-0.03876380157470703	0.9539409790039063	0.061377101898193356	-0.02555850028991699	0.95347802734375	0.04826110076904297	-0.014219799995422363	0.9520170288085937	0.029364999771118165	0.003126970052719116	0.9495369873046875	-0.014840299606323243	0.06151369857788086	0.949552001953125
10	0.3333333333333333	-0.009767020225524902	-0.04207509994506836	0.9784119873046875	-0.01589229965209961	-0.025704000473022463	0.9673200073242187	-0.027753999710083008	-0.005629950046539307	0.95435498046875	-0.027791900634765623	0.026488300323486327	0.9500770263671875	0.0020698699951171872	-0.09499420166015625	0.9239019775390624	0.0005939639806747431	-0.07719429779052735	0.9144390258789062	-0.003113320112228393	-0.05561190032958984	0.908458984375	-0.011634099960327148	-0.01845199966430664	0.9166580200195312	-0.011227299690246582	-0.019346399307250975	0.9543709716796875	-0.00288631010055542	-0.03878450012207031	0.9568790283203125	0.014617199897766114	-0.04778810119628906	0.943405029296875	0.0119621000289917	-0.013415499687194824	0.9180079956054688	-0.003385479927062988	-0.010855099678039552	0.9667459716796875	0.0061476101875305176	-0.02568079948425293	0.966343017578125	0.025328500747680664	-0.0330974006652832	0.95522802734375	0.02774239921569824	-0.0037695999145507812	0.9317109985351563	0.07588390350341796	-0.037925899505615236	0.9530709838867187	0.06176399993896484	-0.02473069953918457	0.9530460205078125	0.048633399963378905	-0.01345829963684082	0.9516160278320313	0.02977630043029785	0.0036983098983764647	0.9491690063476562	-0.014359700202941894	0.06179019927978516	0.949219970703125
11	0.36666666666666664	-0.009415160179138184	-0.04180749893188476	0.9776710205078125	-0.016769399642944337	-0.024894399642944334	0.9664959716796875	-0.027185400009155272	-0.005853519916534424	0.9546279907226562	-0.027277099609375	0.026678400039672853	0.9501680297851562	0.0022775099277496337	-0.09360540008544922	0.9246630249023438	0.001301890015602111	-0.07630750274658203	0.9144329833984375	-0.002205899953842163	-0.05481700134277344	0.9079719848632812	-0.011679400444030761	-0.017634899139404296	0.915843994140625	-0.012168399810791016	-0.0215939998626709	0.9561099853515626	-0.0021983098983764647	-0.03834799957275391	0.9564979858398438	0.015105199813842774	-0.047312599182128906	0.9429310302734375	0.012410799980163574	-0.013265899658203125	0.9172459716796875	-0.0028706099987030028	-0.011277500152587891	0.966333984375	0.006338550090789795	-0.02575709915161133	0.9659130249023438	0.025423500061035158	-0.03284469985961914	0.955406005859375	0.028107999801635742	-0.003351160049438476	0.9316619873046875	0.07595800018310547	-0.03775510025024414	0.9536489868164062	0.062161300659179686	-0.02466239929199219	0.9529110107421875	0.04899879837036133	-0.013282600402832032	0.951614990234375	0.030327800750732423	0.004055150032043457	0.9490750122070313	-0.01414330005645752	0.06227949905395508	0.9493049926757813
12	0.4	-0.007578549861907959	-0.04173030090332031	0.9769669799804688	-0.015423399925231934	-0.025510000228881835	0.9663759765625	-0.02651919937133789	-0.005642940044403076	0.9543380126953125	-0.026138099670410156	0.027021400451660155	0.9498250122070313	0.0016202100515365601	-0.09145970153808594	0.9257739868164062	0.001657799959182739	-0.07517539978027343	0.9143489990234375	-0.001216529965400695	-0.05388470077514648	0.9067739868164062	-0.010830900192260743	-0.01684950065612793	0.9157769775390625	-0.011111499786376954	-0.020822700500488282	0.954823974609375	-0.001240990042686462	-0.03803079986572266	0.9554569702148438	0.01604330062866211	-0.046957298278808596	0.9419910278320313	0.013325099945068359	-0.012331700325012207	0.9171370239257812	-0.0025649099349975583	-0.011090100288391113	0.9645339965820312	0.00717464017868042	-0.024850599288940428	0.9654089965820313	0.026349700927734376	-0.03246260070800781	0.9546890258789062	0.029034700393676758	-0.002973619937896728	0.9308469848632812	0.07671119689941407	-0.037374298095703126	0.9527059936523438	0.0628493995666504	-0.02422909927368164	0.9524329833984375	0.049714099884033205	-0.012787300109863281	0.9512520141601563	0.030980600357055663	0.0046440701484680175	0.949239990234375	-0.013400099754333495	0.06266080093383788	0.949385986328125
13	0.43333333333333335	-0.0065090999603271485	-0.04160950088500977	0.9764249877929687	-0.014668800354003907	-0.02408099937438965	0.9664039916992188	-0.025878400802612306	-0.00498307991027832	0.9541010131835937	-0.026167800903320312	0.02755620002746582	0.9500369873046876	0.001363579988479614	-0.08964199829101563	0.9268040161132812	0.002161930084228515	-0.07408769989013672	0.9145170288085938	-0.000276017010211944	-0.053121299743652345	0.9062659912109375	-0.009911179542541504	-0.016555900573730468	0.9150869750976562	-0.010387800216674804	-0.020171499252319335	0.955094970703125	-0.0006814439892768861	-0.03751589965820312	0.9551890258789062	0.016860599517822265	-0.04644499969482422	0.9416640014648437	0.01398840045928955	-0.011799099922180176	0.9170809936523437	-0.00279390001296997	-0.011187899589538574	0.968458984375	0.007819769859313964	-0.025227399826049806	0.96502197265625	0.02738240051269531	-0.031942399978637695	0.9544530029296875	0.029684499740600587	-0.002320689916610717	0.9310079956054688	0.07730139923095704	-0.03697050094604492	0.9528939819335938	0.06353789901733399	-0.023714399337768553	0.9524210205078125	0.05036640167236328	-0.012260199546813965	0.9513280029296876	0.03172150039672852	0.004841579914093018	0.9485150146484375	-0.012753600120544434	0.06311429977416992	0.9496160278320313
14	0.4666666666666667	-0.006168109893798828	-0.04140810012817383	0.9768049926757812	-0.014859600067138672	-0.02402899932861328	0.96622802734375	-0.025607900619506838	-0.004715360164642334	0.9547769775390625	-0.025681499481201173	0.0274606990814209	0.9499149780273437	0.001554419994354248	-0.08904309844970704	0.927468017578125	0.002553970098495483	-0.07367040252685547	0.9149199829101563	0.00027397200465202306	-0.05293199920654297	0.9063590087890625	-0.009274040222167969	-0.016535200119018555	0.9148209838867187	-0.009853280067443848	-0.020146900177001954	0.9548770141601562	6.0015201568603e-05	-0.037579498291015624	0.9552239990234375	0.01735300064086914	-0.04636780166625976	0.9417730102539063	0.014501700401306153	-0.011752099990844726	0.916864013671875	-0.0021686799526214598	-0.011411899566650391	0.9672769775390625	0.008218850135803223	-0.024562299728393553	0.965625	0.027761899948120117	-0.031835599899291994	0.954791015625	0.030171199798583983	-0.002098229885101318	0.9314329833984375	0.07779650115966796	-0.03682540130615235	0.9531680297851562	0.06402649688720703	-0.023609199523925782	0.9525430297851563	0.050849498748779295	-0.012135700225830078	0.9514929809570313	0.03207789993286133	0.005169650077819824	0.9491409912109375	-0.012176300048828125	0.0631234016418457	0.9502239990234375
